<svg width="24" height="24" viewBox="0 0 24 24" fill="none" xmlns="http://www.w3.org/2000/svg">
<g clip-path="url(#clip0_67_1670)">
<path d="M12 14.5C13.3807 14.5 14.5 13.3807 14.5 12C14.5 10.6193 13.3807 9.5 12 9.5C10.6193 9.5 9.5 10.6193 9.5 12C9.5 13.3807 10.6193 14.5 12 14.5Z" stroke="#180E19" stroke-width="1.5" stroke-linecap="round" stroke-linejoin="round"/>
<path d="M18.1667 14.5C18.0557 14.7514 18.0226 15.0302 18.0717 15.3005C18.1207 15.5709 18.2496 15.8203 18.4417 16.0167L18.4917 16.0667C18.6466 16.2215 18.7696 16.4053 18.8534 16.6076C18.9373 16.81 18.9805 17.0268 18.9805 17.2459C18.9805 17.4649 18.9373 17.6818 18.8534 17.8841C18.7696 18.0864 18.6466 18.2702 18.4917 18.425C18.3369 18.58 18.1531 18.7029 17.9507 18.7868C17.7484 18.8707 17.5315 18.9139 17.3125 18.9139C17.0935 18.9139 16.8766 18.8707 16.6743 18.7868C16.4719 18.7029 16.2881 18.58 16.1333 18.425L16.0833 18.375C15.8869 18.1829 15.6375 18.0541 15.3672 18.005C15.0968 17.956 14.818 17.9891 14.5667 18.1C14.3202 18.2057 14.11 18.3811 13.9619 18.6047C13.8139 18.8282 13.7344 19.0902 13.7333 19.3584V19.5C13.7333 19.9421 13.5577 20.366 13.2452 20.6785C12.9326 20.9911 12.5087 21.1667 12.0667 21.1667C11.6246 21.1667 11.2007 20.9911 10.8882 20.6785C10.5756 20.366 10.4 19.9421 10.4 19.5V19.425C10.3935 19.1492 10.3043 18.8817 10.1438 18.6573C9.98325 18.4329 9.75895 18.2619 9.5 18.1667C9.24866 18.0558 8.96984 18.0227 8.69951 18.0717C8.42918 18.1207 8.17973 18.2496 7.98334 18.4417L7.93334 18.4917C7.77855 18.6467 7.59473 18.7696 7.3924 18.8535C7.19007 18.9373 6.97319 18.9805 6.75417 18.9805C6.53514 18.9805 6.31827 18.9373 6.11594 18.8535C5.9136 18.7696 5.72979 18.6467 5.575 18.4917C5.42004 18.3369 5.29711 18.1531 5.21324 17.9508C5.12936 17.7484 5.08619 17.5316 5.08619 17.3125C5.08619 17.0935 5.12936 16.8766 5.21324 16.6743C5.29711 16.472 5.42004 16.2882 5.575 16.1334L5.625 16.0834C5.81712 15.887 5.94599 15.6375 5.99501 15.3672C6.04402 15.0969 6.01093 14.8181 5.9 14.5667C5.79437 14.3202 5.61897 14.11 5.39539 13.962C5.17181 13.8139 4.90982 13.7344 4.64167 13.7334H4.5C4.05797 13.7334 3.63405 13.5578 3.32149 13.2452C3.00893 12.9327 2.83334 12.5087 2.83334 12.0667C2.83334 11.6247 3.00893 11.2008 3.32149 10.8882C3.63405 10.5756 4.05797 10.4 4.5 10.4H4.575C4.85083 10.3936 5.11834 10.3043 5.34275 10.1438C5.56716 9.98329 5.7381 9.75899 5.83334 9.50004C5.94426 9.24869 5.97736 8.96988 5.92834 8.69955C5.87932 8.42922 5.75045 8.17977 5.55834 7.98337L5.50834 7.93337C5.35337 7.77858 5.23044 7.59477 5.14657 7.39244C5.0627 7.19011 5.01952 6.97323 5.01952 6.75421C5.01952 6.53518 5.0627 6.3183 5.14657 6.11597C5.23044 5.91364 5.35337 5.72983 5.50834 5.57504C5.66312 5.42008 5.84694 5.29715 6.04927 5.21327C6.2516 5.1294 6.46848 5.08623 6.6875 5.08623C6.90653 5.08623 7.12341 5.1294 7.32574 5.21327C7.52807 5.29715 7.71188 5.42008 7.86667 5.57504L7.91667 5.62504C8.11307 5.81715 8.36252 5.94603 8.63284 5.99504C8.90317 6.04406 9.18199 6.01097 9.43334 5.90004H9.5C9.74648 5.7944 9.95668 5.619 10.1047 5.39543C10.2528 5.17185 10.3323 4.90986 10.3333 4.64171V4.50004C10.3333 4.05801 10.5089 3.63409 10.8215 3.32153C11.1341 3.00897 11.558 2.83337 12 2.83337C12.442 2.83337 12.866 3.00897 13.1785 3.32153C13.4911 3.63409 13.6667 4.05801 13.6667 4.50004V4.57504C13.6677 4.8432 13.7472 5.10519 13.8953 5.32876C14.0433 5.55234 14.2535 5.72774 14.5 5.83337C14.7513 5.9443 15.0302 5.97739 15.3005 5.92838C15.5708 5.87936 15.8203 5.75049 16.0167 5.55837L16.0667 5.50837C16.2215 5.35341 16.4053 5.23048 16.6076 5.14661C16.8099 5.06273 17.0268 5.01956 17.2458 5.01956C17.4649 5.01956 17.6817 5.06273 17.8841 5.14661C18.0864 5.23048 18.2702 5.35341 18.425 5.50837C18.58 5.66316 18.7029 5.84698 18.7868 6.04931C18.8706 6.25164 18.9138 6.46851 18.9138 6.68754C18.9138 6.90657 18.8706 7.12344 18.7868 7.32577C18.7029 7.5281 18.58 7.71192 18.425 7.86671L18.375 7.91671C18.1829 8.11311 18.054 8.36255 18.005 8.63288C17.956 8.90321 17.9891 9.18203 18.1 9.43337V9.50004C18.2056 9.74651 18.381 9.95672 18.6046 10.1048C18.8282 10.2528 19.0902 10.3323 19.3583 10.3334H19.5C19.942 10.3334 20.366 10.509 20.6785 10.8215C20.9911 11.1341 21.1667 11.558 21.1667 12C21.1667 12.4421 20.9911 12.866 20.6785 13.1786C20.366 13.4911 19.942 13.6667 19.5 13.6667H19.425C19.1568 13.6678 18.8949 13.7472 18.6713 13.8953C18.4477 14.0434 18.2723 14.2536 18.1667 14.5V14.5Z" stroke="#180E19" stroke-width="1.5" stroke-linecap="round" stroke-linejoin="round"/>
</g>
<defs>
<clipPath id="clip0_67_1670">
<rect width="20" height="20" fill="white" transform="translate(2 2)"/>
</clipPath>
</defs>
</svg>
